<svg width="800" height="800" viewBox="0 0 24 24" fill="none" xmlns="http://www.w3.org/2000/svg"><path d="M3 6C3 4.34315 4.34315 3 6 3H18c1.6569.0 3 1.34315 3 3v6.0218C20.3945 11.6341 19.7204 11.3441 19 11.1739V6C19 5.44772 18.5523 5 18 5H6c-.55228.0-1 .44772-1 1V18C5 18.5523 5.44772 19 6 19h5.1739C11.3441 19.7204 11.6341 20.3945 12.0218 21H6c-1.65685.0-3-1.3431-3-3V6z" fill="currentColor"/><path d="M23 17.5c0 3.0376-2.4624 5.5-5.5 5.5-3.0376.0-5.5-2.4624-5.5-5.5.0-3.0376 2.4624-5.5 5.5-5.5 3.0376.0 5.5 2.4624 5.5 5.5zm-5.6464-2.1464c.1952-.1953.1952-.511900000000001.0-.7072-.1953-.1952-.511900000000001-.1952-.7072.0l-2.5 2.5c-.1952.1953-.1952.511900000000001.0.7072l2.5 2.5c.1953.1952.511900000000001.1952.7072.0.1952-.1953.1952-.511900000000001.0-.7072L15.7071 18H20.5c.2761.0.5-.2239.5-.5s-.2239-.5-.5-.5H15.7071l1.6465-1.6464z" fill="currentColor"/></svg>