<svg width="800" height="800" viewBox="0 0 32 32" enable-background="new 0 0 32 32" xmlns="http://www.w3.org/2000/svg"><g id="Home"/><g id="Print"/><g id="Mail"/><g id="Camera"/><g id="Video"/><g id="Film"/><g id="Message"/><g id="Telephone"/><g id="User"/><g id="File"/><g id="Folder"/><g id="Map"/><g id="Download"/><g id="Upload"/><g id="Video_Recorder"/><g id="Schedule"/><g id="Cart"/><g id="Setting"/><g id="Search"/><g id="Pencils"/><g id="Group"/><g id="Record"/><g id="Headphone"/><g id="Music_Player"/><g id="Sound_On"/><g id="Sound_Off"/><g id="Lock"/><g id="Lock_open"/><g id="Love"/><g id="Favorite"/><g id="Film_1_"/><g id="Music"/><g id="Puzzle"/><g id="Turn_Off"/><g id="Book"/><g id="Save"/><g id="Reload"><path d="M16 1C12.1 1 8.4 2.5 5.6 5.2V2c0-.5-.4-1-1-1-.5.0-1 .5-1 1v5.8c0 .1.0.2.0.2.0.1.0.1.1.2.0.1.1.1.1.2s.1.1.2.2l.1.1s.1.0.2.1c.1.0.2.0.3.0h5.8c.5.0 1-.4 1-1 0-.5-.5-1-1-1H6.8C9.2 4.4 12.5 3 16 3c7.2.0 13 5.8 13 13s-5.8 13-13 13S3 23.2 3 16c0-.5-.5-1-1-1s-1 .5-1 1c0 8.3 6.7 15 15 15s15-6.7 15-15C31 7.7 24.3 1 16 1z" fill="#0E9688"/><g><path d="M11.5 7.8c0 .6-.5 1-1 1H4.6c-.1.0-.2.0-.3.0.0.0-.1.0-.2-.1.0.0-.1.0-.1-.1C4 8.6 3.9 8.5 3.9 8.5s0 0 0 0c0-.1-.1-.1-.1-.2.0-.1-.1-.1-.1-.2s0-.2.0-.2V2c0-.5.5-1 1-1 .6.0 1 .5 1 1v4.8h4.8c.5.0 1 .5 1 1z" fill="#FE9803"/></g></g><g id="Trash"/><g id="Tag"/><g id="Link"/><g id="Like"/><g id="Bad"/><g id="Gallery"/><g id="Add"/><g id="Close"/><g id="Forward"/><g id="Back"/><g id="Buy"/><g id="Mac"/><g id="Laptop"/></svg>