<svg xmlns="http://www.w3.org/2000/svg" width="800" height="800" viewBox="0 -10 38 38"><title>activity</title><g fill="none" fill-rule="evenodd"><path fill="currentColor" d="M15 18a2 2 0 01-1.788-1.1l-3.6-7.183-2.047 2.551A2 2 0 016 13.013H2a1.994 1.994.0 110-3.988h3.039l3.4-4.237a2 2 0 013.351.354l2.7 5.386 2.588-9.03a2 2 0 013.75-.262l3.473 7.79H27a1.994 1.994.0 110 3.988h-4a2 2 0 01-1.827-1.184L19.41 7.874l-2.487 8.678a2 2 0 01-1.737 1.437C15.123 18 15.061 18 15 18"/><path fill="currentColor" d="M32 17a6 6 0 110-12 6 6 0 010 12m0-8.717a2.72 2.72.0 10.016 5.44A2.72 2.72.0 0032 8.283"/></g></svg>