<svg fill="currentColor" width="800" height="800" viewBox="0 0 16 16" xmlns="http://www.w3.org/2000/svg"><g fill-rule="evenodd"><path d="M4.82697983 8.78763886 9.18650994 4.14664044c.183662609999999-.19552059.48143853-.19552059.665101139999999.0L10.862253 5.2225334c.183662699999999.19552058.183662699999999.51252208.0.70804266L5.39706652 11.7486164c-.314850190000001.3351781-.8253232.3351781-1.14017338.0L1.13774696 8.42808594C.954084348 8.23256536.954084348 7.91556386 1.13774696 7.72004327L2.14838892 6.64415031c.18366261-.195520579999999.48143853-.195520579999999.66510114.0L4.82697983 8.78763886zM13 4h1c.5522847.0 1 .44771525 1 1S14.5522847 6 14 6H13c-.5522847.0-1-.44771525-1-1S12.4477153 4 13 4zm0 3h1c.5522847.0 1 .44771525 1 1S14.5522847 9 14 9H13c-.5522847.0-1-.44771525-1-1S12.4477153 7 13 7zm0 3h1C14.5522847 10 15 10.4477153 15 11S14.5522847 12 14 12H13C12.4477153 12 12 11.5522847 12 11S12.4477153 10 13 10z"/></g></svg>